<svg xmlns="http://www.w3.org/2000/svg" viewBox="0 0 24 24"><path fill="#00A551" d="M21.683 10.149a1.288 1.288 0 0 0-.206-1.214 1.159 1.159 0 0 0-1.103-.432l-7.975 1.486-9.27 12.658 10.914-2.666.007-.004 7.633-9.828z"/><path fill="#FFF100" d="m12.546 9.988-.463-8.345a1.405 1.405 0 0 0-1.069-.851 1.48 1.48 0 0 0-1.327.413l-7.411 9.171-.001.007-.025 12.264L12.546 9.988z"/><path d="M3.091 24c-.347 0-.687-.116-.969-.337a1.621 1.621 0 0 1-.622-1.286l.022-11.636c0-.619.062-.703 1.667-2.856C4.138 6.61 5.68 4.54 8.188 1.078 8.919.2 9.967-.165 11.022.065a2.94 2.94 0 0 1 2.195 2.062.82.82 0 0 1 .038.185v.007l.001.029.302 5.971 5.646-1.043c1.03-.178 2.027.215 2.675 1.047.669.859.81 2.013.367 3.01a.714.714 0 0 1-.095.157l-5.571 7.116-1.718 2.194-.01.014c-.395.502-.443.514-2.961 1.103-1.536.36-4.095.959-8.422 2.037a1.582 1.582 0 0 1-.378.046zm-.05-1.707.03.117c.147-.002.384-.038.696-.103.846-.204 1.62-.391 2.328-.56l.348-.089c1.65-.419 3.911-.994 7.112-1.732.132-.09.646-.755 1.578-1.963 1.062-1.375 2.801-3.627 5.741-7.338a1.411 1.411 0 0 0-.212-1.358c-.141-.181-.534-.589-1.181-.474l-6.508 1.202a.738.738 0 0 1-.616-.161.816.816 0 0 1-.292-.558l-.34-6.766a1.377 1.377 0 0 0-1.022-.939 1.314 1.314 0 0 0-1.285.435l-6.312 8.606c-.065.176-.061.977-.053 2.431.007 1.7.022 4.513-.012 9.25z"/><path d="M2.594 23.778a.75.75 0 0 1-.601-1.197l10.241-13.77a.75.75 0 1 1 1.203.895l-10.24 13.77a.75.75 0 0 1-.603.302z"/></svg>